<svg width="93" height="82" viewBox="0 0 93 82" fill="none" xmlns="http://www.w3.org/2000/svg">
<path fill-rule="evenodd" clip-rule="evenodd" d="M67.109 0.528384C67.109 0.528384 67.109 0.528211 66.9591 0.534568C66.829 0.459856 66.829 0.459947 66.829 0.459947L66.8248 0.467179L66.812 0.489285L66.7616 0.576078C66.7171 0.652283 66.6513 0.764382 66.5662 0.907696C66.3959 1.19433 66.1483 1.60578 65.8393 2.1046C65.2213 3.10237 64.3579 4.44899 63.3763 5.84508C62.3943 7.24167 61.2959 8.68513 60.2079 9.87786C59.1159 11.075 58.0489 12.0029 57.1311 12.3892L57.2475 12.6657C58.2295 12.2524 59.3335 11.2815 60.4295 10.08C61.5295 8.8742 62.6361 7.41938 63.6217 6.01763C64.6076 4.61539 65.4743 3.26362 66.0944 2.26258C66.4045 1.76199 66.653 1.34893 66.8241 1.06091C66.828 1.05431 66.8319 1.04778 66.8357 1.04131C66.8413 1.13609 66.8479 1.24322 66.8555 1.36171C66.889 1.88061 66.9432 2.61764 67.026 3.49074C67.1917 5.23628 67.4722 7.52861 67.9318 9.71006C68.3902 11.8861 69.0309 13.9724 69.9262 15.2913C70.3745 15.9517 70.8979 16.4366 71.5108 16.6313C72.1304 16.8282 72.8123 16.7194 73.5524 16.2521L73.3922 15.9985C72.7076 16.4307 72.1173 16.5093 71.6016 16.3454C71.0791 16.1794 70.6039 15.7555 70.1744 15.1228C69.3143 13.8558 68.6828 11.8195 68.2253 9.64821C67.769 7.48223 67.4898 5.20229 67.3247 3.4624C67.2422 2.59279 67.1882 1.85881 67.1549 1.34239C67.1383 1.0842 67.1268 0.880417 67.1194 0.741299C67.1158 0.67174 67.1131 0.618349 67.1114 0.582407L67.1096 0.541742L67.109 0.528384ZM66.9591 0.534568L66.829 0.459947L67.087 0.0107426L67.109 0.528384L66.9591 0.534568Z" fill="white"/>
<path fill-rule="evenodd" clip-rule="evenodd" d="M53.5163 51.5756C60.8273 38.8968 65.481 24.553 65.481 11.3279L65.181 11.3279C65.181 24.4872 60.5486 38.7796 53.2564 51.4257C45.9643 64.0718 36.0201 75.0582 25.4115 81.6121L25.5692 81.8673C36.2292 75.2816 46.2053 64.2543 53.5163 51.5756Z" fill="white"/>
</svg>
