<svg width="93" height="83" viewBox="0 0 93 83" fill="none" xmlns="http://www.w3.org/2000/svg">
<path fill-rule="evenodd" clip-rule="evenodd" d="M25.4575 82.3035C25.4575 82.3035 25.4575 82.3036 25.6074 82.2976C25.7373 82.3726 25.7373 82.3725 25.7373 82.3725L25.7415 82.3653L25.7543 82.3432L25.805 82.2565C25.8496 82.1804 25.9157 82.0685 26.0011 81.9254C26.172 81.6391 26.4205 81.2282 26.7306 80.7301C27.3509 79.7337 28.2173 78.389 29.202 76.9951C30.1871 75.6007 31.2887 74.1597 32.3794 72.9693C33.474 71.7747 34.5431 70.8491 35.4617 70.4649L35.3459 70.1881C34.3631 70.5992 33.2569 71.5676 32.1582 72.7667C31.0555 73.9701 29.9457 75.4224 28.957 76.822C27.968 78.222 27.0983 79.5719 26.4759 80.5715C26.1647 81.0714 25.9153 81.4839 25.7435 81.7716C25.7396 81.7782 25.7357 81.7847 25.7319 81.7911C25.7265 81.6964 25.7202 81.5892 25.7128 81.4707C25.6805 80.9517 25.6279 80.2146 25.547 79.3413C25.3853 77.5954 25.1098 75.3024 24.6551 73.12C24.2015 70.9429 23.5655 68.8552 22.6731 67.5343C22.2263 66.873 21.7039 66.3868 21.0915 66.1908C20.4723 65.9925 19.7902 66.0998 19.0491 66.5654L19.2087 66.8195C19.8943 66.3887 20.4847 66.3115 21 66.4765C21.5222 66.6437 21.9964 67.0686 22.4245 67.7022C23.2818 68.9712 23.9088 71.0088 24.3614 73.1812C24.8129 75.3482 25.0871 77.6287 25.2483 79.369C25.3289 80.2388 25.3812 80.9729 25.4134 81.4894C25.4295 81.7476 25.4405 81.9514 25.4475 82.0905C25.451 82.1601 25.4535 82.2135 25.4551 82.2494L25.4569 82.2901L25.4575 82.3035ZM25.6074 82.2976L25.7373 82.3725L25.4783 82.8211L25.4575 82.3035L25.6074 82.2976Z" fill="white"/>
<path fill-rule="evenodd" clip-rule="evenodd" d="M39.1636 31.2866C31.8244 43.9491 27.1389 58.2825 27.1095 71.5076L27.4095 71.5083C27.4388 58.349 32.1029 44.067 39.4232 31.4371C46.7434 18.8072 56.712 7.84294 67.3351 1.31265L67.178 1.05707C56.5034 7.61903 46.5028 18.6242 39.1636 31.2866Z" fill="white"/>
</svg>
