<svg width="189" height="59" viewBox="0 0 189 59" fill="none" xmlns="http://www.w3.org/2000/svg">
<path d="M94.3633 1.19971C120.366 1.19971 143.887 4.43624 160.891 9.65674C169.396 12.2679 176.242 15.3674 180.951 18.7856C185.671 22.2119 188.155 25.889 188.155 29.6489C188.155 33.4089 185.671 37.0869 180.951 40.5132C176.242 43.9313 169.396 47.03 160.891 49.6411C143.887 54.8616 120.366 58.0981 94.3633 58.0981C68.361 58.0981 44.84 54.8616 27.836 49.6411C19.3312 47.03 12.4846 43.9313 7.77545 40.5132C3.05521 37.0869 0.57135 33.4089 0.57135 29.6489C0.571453 25.889 3.05531 22.2119 7.77545 18.7856C12.4846 15.3675 19.331 12.2679 27.836 9.65674C44.84 4.43625 68.361 1.19971 94.3633 1.19971Z" stroke="white"/>
</svg>
